#Comment line ignore any data following # character 
#Hierarchical Translation and Rotation (.htr) file 
[Header]	
#Header keywords are followed by a single value 
FileType HTR		#Single word string
DataType HTRS		#Translation followed by rotation and scale data
FileVersion 1		#integer
NumSegments 84		#integer
NumFrames 2		#integer
DataFrameRate 30		#integer, data frame rate in this file
EulerRotationOrder ZYX
CalibrationUnits mm
RotationUnits Degrees
GlobalAxisofGravity Y
BoneLengthAxis Y
ScaleFactor 1.00
[SegmentNames&Hierarchy]
#CHILD	PARENT
MASTER GLOBAL
root MASTER
chest root
L_mid_tent01 root
R_mid_tent01 root
spine01 root
Bip01_Neck chest
L_humerus chest
R_humerus chest
weapon_bone chest
Bip01_Head Bip01_Neck
eye_left_bone Bip01_Head
eye_right_bone Bip01_Head
L_forearm L_humerus
L_front_hand L_forearm
L_weapon_bone L_forearm
L_front_hand01_01 L_front_hand
L_front_hand02_01 L_front_hand
L_front_hand03_01 L_front_hand
L_front_hand01_02 L_front_hand01_01
L_front_hand02_02 L_front_hand02_01
L_front_hand03_02 L_front_hand03_01
R_forearm R_humerus
R_front_hand R_forearm
R_weapon_bone R_forearm
R_front_hand01_01 R_front_hand
R_front_hand02_01 R_front_hand
R_front_hand03_01 R_front_hand
R_front_hand01_02 R_front_hand01_01
R_front_hand02_02 R_front_hand02_01
R_front_hand03_02 R_front_hand03_01
null_rope01_connect L_mid_tent01
Rope1_Seg01 null_rope01_connect
Rope1_Seg02 Rope1_Seg01
Rope1_Seg03 Rope1_Seg02
Rope1_Seg04 Rope1_Seg03
Rope1_Seg05 Rope1_Seg04
Rope1_Seg06 Rope1_Seg05
Rope1_Seg07 Rope1_Seg06
Rope1_Seg09 Rope1_Seg07
L_mid_hand01 Rope1_Seg09
L_mid_hand02 Rope1_Seg09
L_mid_hand03 Rope1_Seg09
null_rope02_connect R_mid_tent01
Rope2_Seg01 null_rope02_connect
Rope2_Seg02 Rope2_Seg01
Rope2_Seg03 Rope2_Seg02
Rope2_Seg04 Rope2_Seg03
Rope2_Seg05 Rope2_Seg04
Rope2_Seg06 Rope2_Seg05
Rope2_Seg07 Rope2_Seg06
Rope2_Seg09 Rope2_Seg07
R_mid_hand01 Rope2_Seg09
R_mid_hand02 Rope2_Seg09
R_mid_hand03 Rope2_Seg09
spine02 spine01
spine03 spine02
pelvis spine03
null_rope03_connect pelvis
null_rope04_connect pelvis
Rope3_Seg01 null_rope03_connect
Rope3_Seg02 Rope3_Seg01
Rope3_Seg03 Rope3_Seg02
Rope3_Seg04 Rope3_Seg03
Rope3_Seg05 Rope3_Seg04
Rope3_Seg06 Rope3_Seg05
Rope3_Seg07 Rope3_Seg06
Rope3_Seg08 Rope3_Seg07
Rope3_Seg09 Rope3_Seg08
R_rear_hand01 Rope3_Seg09
R_rear_hand02 Rope3_Seg09
R_rear_hand03 Rope3_Seg09
Rope4_Seg01 null_rope04_connect
Rope4_Seg02 Rope4_Seg01
Rope4_Seg03 Rope4_Seg02
Rope4_Seg04 Rope4_Seg03
Rope4_Seg05 Rope4_Seg04
Rope4_Seg06 Rope4_Seg05
Rope4_Seg07 Rope4_Seg06
Rope4_Seg08 Rope4_Seg07
Rope4_Seg09 Rope4_Seg08
L_rear_hand01 Rope4_Seg09
L_rear_hand02 Rope4_Seg09
L_rear_hand03 Rope4_Seg09
[BasePosition]
#SegmentName Tx, Ty, Tz, Rx, Ry, Rz, BoneLength
MASTER 0.000000 0.000000 0.000000 -90.000000 0.000000 0.000000 10.000000 
root 0.000000 0.000000 0.000000 0.000000 0.000000 0.000000 10.000000 
chest 0.000000 0.000000 0.000000 0.000000 0.000000 0.000000 10.000000 
L_mid_tent01 0.000000 0.000000 0.000000 0.000000 0.000000 0.000000 10.000000 
R_mid_tent01 0.000000 0.000000 0.000000 0.000000 0.000000 0.000000 10.000000 
spine01 0.000000 0.000000 0.000000 0.000000 0.000000 0.000000 10.000000 
Bip01_Neck 0.000000 0.000000 0.000000 0.000000 0.000000 0.000000 10.000000 
L_humerus 0.000000 0.000000 0.000000 0.000000 0.000000 0.000000 10.000000 
R_humerus 0.000000 0.000000 0.000000 0.000000 0.000000 0.000000 10.000000 
weapon_bone 0.000000 0.000000 0.000000 0.000000 0.000000 0.000000 10.000000 
Bip01_Head 0.000000 0.000000 0.000000 0.000000 0.000000 0.000000 10.000000 
eye_left_bone 0.000000 0.000000 0.000000 0.000000 0.000000 0.000000 10.000000 
eye_right_bone 0.000000 0.000000 0.000000 0.000000 0.000000 0.000000 10.000000 
L_forearm 0.000000 0.000000 0.000000 0.000000 0.000000 0.000000 10.000000 
L_front_hand 0.000000 0.000000 0.000000 0.000000 0.000000 0.000000 10.000000 
L_weapon_bone 0.000000 0.000000 0.000000 0.000000 0.000000 0.000000 10.000000 
L_front_hand01_01 0.000000 0.000000 0.000000 0.000000 0.000000 0.000000 10.000000 
L_front_hand02_01 0.000000 0.000000 0.000000 0.000000 0.000000 0.000000 10.000000 
L_front_hand03_01 0.000000 0.000000 0.000000 0.000000 0.000000 0.000000 10.000000 
L_front_hand01_02 0.000000 0.000000 0.000000 0.000000 0.000000 0.000000 10.000000 
L_front_hand02_02 0.000000 0.000000 0.000000 0.000000 0.000000 0.000000 10.000000 
L_front_hand03_02 0.000000 0.000000 0.000000 0.000000 0.000000 0.000000 10.000000 
R_forearm 0.000000 0.000000 0.000000 0.000000 0.000000 0.000000 10.000000 
R_front_hand 0.000000 0.000000 0.000000 0.000000 0.000000 0.000000 10.000000 
R_weapon_bone 0.000000 0.000000 0.000000 0.000000 0.000000 0.000000 10.000000 
R_front_hand01_01 0.000000 0.000000 0.000000 0.000000 0.000000 0.000000 10.000000 
R_front_hand02_01 0.000000 0.000000 0.000000 0.000000 0.000000 0.000000 10.000000 
R_front_hand03_01 0.000000 0.000000 0.000000 0.000000 0.000000 0.000000 10.000000 
R_front_hand01_02 0.000000 0.000000 0.000000 0.000000 0.000000 0.000000 10.000000 
R_front_hand02_02 0.000000 0.000000 0.000000 0.000000 0.000000 0.000000 10.000000 
R_front_hand03_02 0.000000 0.000000 0.000000 0.000000 0.000000 0.000000 10.000000 
null_rope01_connect 0.000000 0.000000 0.000000 0.000000 0.000000 0.000000 10.000000 
Rope1_Seg01 0.000000 0.000000 0.000000 0.000000 0.000000 0.000000 10.000000 
Rope1_Seg02 0.000000 0.000000 0.000000 0.000000 0.000000 0.000000 10.000000 
Rope1_Seg03 0.000000 0.000000 0.000000 0.000000 0.000000 0.000000 10.000000 
Rope1_Seg04 0.000000 0.000000 0.000000 0.000000 0.000000 0.000000 10.000000 
Rope1_Seg05 0.000000 0.000000 0.000000 0.000000 0.000000 0.000000 10.000000 
Rope1_Seg06 0.000000 0.000000 0.000000 0.000000 0.000000 0.000000 10.000000 
Rope1_Seg07 0.000000 0.000000 0.000000 0.000000 0.000000 0.000000 10.000000 
Rope1_Seg09 0.000000 0.000000 0.000000 0.000000 0.000000 0.000000 10.000000 
L_mid_hand01 0.000000 0.000000 0.000000 0.000000 0.000000 0.000000 10.000000 
L_mid_hand02 0.000000 0.000000 0.000000 0.000000 0.000000 0.000000 10.000000 
L_mid_hand03 0.000000 0.000000 0.000000 0.000000 0.000000 0.000000 10.000000 
null_rope02_connect 0.000000 0.000000 0.000000 0.000000 0.000000 0.000000 10.000000 
Rope2_Seg01 0.000000 0.000000 0.000000 0.000000 0.000000 0.000000 10.000000 
Rope2_Seg02 0.000000 0.000000 0.000000 0.000000 0.000000 0.000000 10.000000 
Rope2_Seg03 0.000000 0.000000 0.000000 0.000000 0.000000 0.000000 10.000000 
Rope2_Seg04 0.000000 0.000000 0.000000 0.000000 0.000000 0.000000 10.000000 
Rope2_Seg05 0.000000 0.000000 0.000000 0.000000 0.000000 0.000000 10.000000 
Rope2_Seg06 0.000000 0.000000 0.000000 0.000000 0.000000 0.000000 10.000000 
Rope2_Seg07 0.000000 0.000000 0.000000 0.000000 0.000000 0.000000 10.000000 
Rope2_Seg09 0.000000 0.000000 0.000000 0.000000 0.000000 0.000000 10.000000 
R_mid_hand01 0.000000 0.000000 0.000000 0.000000 0.000000 0.000000 10.000000 
R_mid_hand02 0.000000 0.000000 0.000000 0.000000 0.000000 0.000000 10.000000 
R_mid_hand03 0.000000 0.000000 0.000000 0.000000 0.000000 0.000000 10.000000 
spine02 0.000000 0.000000 0.000000 0.000000 0.000000 0.000000 10.000000 
spine03 0.000000 0.000000 0.000000 0.000000 0.000000 0.000000 10.000000 
pelvis 0.000000 0.000000 0.000000 0.000000 0.000000 0.000000 10.000000 
null_rope03_connect 0.000000 0.000000 0.000000 0.000000 0.000000 0.000000 10.000000 
null_rope04_connect 0.000000 0.000000 0.000000 0.000000 0.000000 0.000000 10.000000 
Rope3_Seg01 0.000000 0.000000 0.000000 0.000000 0.000000 0.000000 10.000000 
Rope3_Seg02 0.000000 0.000000 0.000000 0.000000 0.000000 0.000000 10.000000 
Rope3_Seg03 0.000000 0.000000 0.000000 0.000000 0.000000 0.000000 10.000000 
Rope3_Seg04 0.000000 0.000000 0.000000 0.000000 0.000000 0.000000 10.000000 
Rope3_Seg05 0.000000 0.000000 0.000000 0.000000 0.000000 0.000000 10.000000 
Rope3_Seg06 0.000000 0.000000 0.000000 0.000000 0.000000 0.000000 10.000000 
Rope3_Seg07 0.000000 0.000000 0.000000 0.000000 0.000000 0.000000 10.000000 
Rope3_Seg08 0.000000 0.000000 0.000000 0.000000 0.000000 0.000000 10.000000 
Rope3_Seg09 0.000000 0.000000 0.000000 0.000000 0.000000 0.000000 10.000000 
R_rear_hand01 0.000000 0.000000 0.000000 0.000000 0.000000 0.000000 10.000000 
R_rear_hand02 0.000000 0.000000 0.000000 0.000000 0.000000 0.000000 10.000000 
R_rear_hand03 0.000000 0.000000 0.000000 0.000000 0.000000 0.000000 10.000000 
Rope4_Seg01 0.000000 0.000000 0.000000 0.000000 0.000000 0.000000 10.000000 
Rope4_Seg02 0.000000 0.000000 0.000000 0.000000 0.000000 0.000000 10.000000 
Rope4_Seg03 0.000000 0.000000 0.000000 0.000000 0.000000 0.000000 10.000000 
Rope4_Seg04 0.000000 0.000000 0.000000 0.000000 0.000000 0.000000 10.000000 
Rope4_Seg05 0.000000 0.000000 0.000000 0.000000 0.000000 0.000000 10.000000 
Rope4_Seg06 0.000000 0.000000 0.000000 0.000000 0.000000 0.000000 10.000000 
Rope4_Seg07 0.000000 0.000000 0.000000 0.000000 0.000000 0.000000 10.000000 
Rope4_Seg08 0.000000 0.000000 0.000000 0.000000 0.000000 0.000000 10.000000 
Rope4_Seg09 0.000000 0.000000 0.000000 0.000000 0.000000 0.000000 10.000000 
L_rear_hand01 0.000000 0.000000 0.000000 0.000000 0.000000 0.000000 10.000000 
L_rear_hand02 0.000000 0.000000 0.000000 0.000000 0.000000 0.000000 10.000000 
L_rear_hand03 0.000000 0.000000 0.000000 0.000000 0.000000 0.000000 10.000000 
#Beginning of Data. Separated by tabs
#Fr	Tx	Ty	Tz	Rx	Ry	Rz	SF
[MASTER]
13 -3122.964600 -0.000535 0.000000 0.001466 0.001834 -12.719246 3122.964600
14 -3332.216797 -0.000561 0.000000 0.001440 0.001854 -14.334868 3332.216797
[root]
13 -96.038208 -63.212505 883.954346 -85.816078 -44.243858 -99.344017 891.400269
14 -93.811340 -63.201599 901.203674 -87.502220 -42.874031 -98.532433 908.274780
[chest]
13 -84.512650 -34.090519 0.000000 8.637840 -12.731663 -174.486221 91.129311
14 -84.512650 -34.090519 0.000000 9.464713 -14.340755 -177.568390 91.129311
[L_mid_tent01]
13 27.299614 22.177534 -249.918182 0.648425 28.856388 49.976696 252.381073
14 27.299629 22.177538 -249.918213 1.109786 32.776295 52.529240 252.381104
[R_mid_tent01]
13 23.228794 24.509907 226.238495 155.451279 -19.405365 91.657951 228.744751
14 23.228794 24.509907 226.238495 154.801346 -20.878473 91.949974 228.744751
[spine01]
13 -0.361383 -0.195265 0.000000 0.238226 0.412386 13.107586 0.410763
14 -0.361383 -0.195265 0.000000 0.162329 0.402853 12.879189 0.410763
[Bip01_Neck]
13 165.484543 71.581718 0.000119 175.896118 1.177290 24.871183 180.302734
14 165.484543 71.581718 0.000119 175.896118 1.177290 24.871183 180.302734
[L_humerus]
13 -13.983130 -135.272980 -120.471481 179.674789 81.645012 -91.927795 181.680161
14 -13.983130 -135.272980 -120.471481 176.257370 81.637329 -94.771049 181.680161
[R_humerus]
13 -13.983309 -135.273102 125.287651 -163.361755 -69.186424 -98.880257 184.909012
14 -13.983309 -135.273102 125.287651 -161.922592 -69.099579 -99.768066 184.909012
[weapon_bone]
13 235.964890 -300.705902 0.000000 0.000000 -89.951546 -128.212341 382.234833
14 235.964890 -300.705902 0.000000 0.000000 -89.951546 -128.212341 382.234833
[Bip01_Head]
13 256.057434 70.422050 3.879089 0.867666 3.886960 -73.000977 265.593170
14 255.957031 64.269333 8.777771 0.689431 3.677422 -73.699547 264.048492
[eye_left_bone]
13 -24.626970 125.451866 -64.772606 0.000000 -90.000000 -99.840431 143.318359
14 -24.626970 125.451866 -64.772606 0.000000 -90.000000 -99.840431 143.318359
[eye_right_bone]
13 -24.626970 125.451866 64.327362 0.000000 -89.960434 80.159386 143.117676
14 -24.626970 125.451866 64.327362 0.000000 -89.960434 80.159386 143.117676
[L_forearm]
13 322.776093 0.000000 -0.000119 0.000319 0.002325 -74.382004 322.776093
14 322.776093 0.000000 -0.000119 0.000284 0.002330 -76.092827 322.776093
[L_front_hand]
13 241.149185 -0.042021 -3.300071 -178.644424 -1.819501 -28.069609 241.171753
14 241.149185 -0.042021 -3.300071 -178.475525 -1.680012 -33.659088 241.171753
[L_weapon_bone]
13 156.183838 0.000000 0.000000 0.001988 0.001247 25.808270 156.183838
14 156.183838 0.000000 0.000000 0.001945 0.001314 21.900709 156.183838
[L_front_hand01_01]
13 86.095154 20.947098 -0.655860 0.405585 -0.442306 -4.620490 88.609184
14 86.095154 20.947098 -0.655860 0.405585 -0.442306 -4.620490 88.609184
[L_front_hand02_01]
13 86.935165 -11.437475 24.513514 116.959450 3.630817 1.495453 91.046425
14 86.935165 -11.437475 24.513514 116.959450 3.630817 1.495453 91.046425
[L_front_hand03_01]
13 86.637497 -14.123976 -20.424902 -118.420097 -4.656303 -0.152527 90.126129
14 86.637497 -14.123976 -20.424902 -118.420097 -4.656304 -0.152527 90.126129
[L_front_hand01_02]
13 71.020905 -0.000179 0.000030 0.001534 0.001777 -8.378848 71.020905
14 71.020905 -0.000179 0.000030 0.001534 0.001777 -8.378851 71.020905
[L_front_hand02_02]
13 71.020927 -0.000119 0.000060 0.001534 0.001777 -8.378848 71.020927
14 71.020927 -0.000119 0.000060 0.001534 0.001777 -8.378851 71.020927
[L_front_hand03_02]
13 71.020905 -0.000060 0.000060 0.001534 0.001777 -8.378848 71.020905
14 71.020905 -0.000060 0.000060 0.001534 0.001777 -8.378851 71.020905
[R_forearm]
13 322.776428 -0.000060 0.000030 0.199642 -0.075757 -69.824646 322.776428
14 322.776428 -0.000060 0.000030 0.199694 -0.075621 -69.903069 322.776428
[R_front_hand]
13 238.847015 -0.006795 2.210259 -1.625255 0.590492 -58.806774 238.857239
14 238.847015 -0.006795 2.210259 -1.703285 0.297777 -68.812042 238.857239
[R_weapon_bone]
13 155.664093 0.002503 -0.000030 0.002958 0.002191 -126.655670 155.664078
14 155.664093 0.002503 -0.000030 0.003047 0.002065 -121.855042 155.664078
[R_front_hand01_01]
13 87.624611 14.231146 22.918642 -116.960205 3.496675 -1.324138 91.683487
14 87.624611 14.231146 22.918642 -116.960205 3.496675 -1.324138 91.683487
[R_front_hand02_01]
13 89.356956 14.367283 -19.491137 118.419647 -4.257089 0.609827 92.579636
14 89.356956 14.367283 -19.491137 118.419647 -4.257089 0.609827 92.579636
[R_front_hand03_01]
13 87.286232 -22.307278 -0.143439 -0.387970 -0.231462 4.232001 90.091743
14 87.286232 -22.307278 -0.143439 -0.387970 -0.231462 4.232001 90.091743
[R_front_hand01_02]
13 71.020905 0.000060 0.000119 0.001777 0.001534 8.377220 71.020905
14 71.020905 0.000060 0.000119 0.001777 0.001534 8.377220 71.020905
[R_front_hand02_02]
13 71.020844 -0.000030 -0.000119 0.001777 0.001534 8.377220 71.020836
14 71.020844 -0.000030 -0.000119 0.001777 0.001534 8.377220 71.020836
[R_front_hand03_02]
13 71.020905 0.000000 0.000030 0.001777 0.001534 8.377220 71.020905
14 71.020905 0.000000 0.000030 0.001777 0.001534 8.377220 71.020905
[null_rope01_connect]
13 328.732483 0.000000 -0.000238 -89.267990 -42.083607 173.112442 328.732483
14 328.732483 0.000000 -0.000238 -93.173836 -36.283161 172.790558 328.732483
[Rope1_Seg01]
13 0.000000 0.000000 0.000000 -169.786026 80.087753 -154.913467 0.000000
14 0.000000 0.000000 0.000000 139.189865 80.004990 155.477066 0.000000
[Rope1_Seg02]
13 139.999863 -0.000179 0.000000 -1.713822 -10.608920 13.723949 139.999863
14 139.999863 -0.000179 0.000000 -1.336818 -14.595494 14.069144 139.999863
[Rope1_Seg03]
13 139.999924 0.000060 -0.000060 -2.406359 -12.060596 20.102947 139.999924
14 139.999924 0.000060 -0.000060 -1.979325 -13.690993 17.089081 139.999924
[Rope1_Seg04]
13 139.999924 -0.000060 -0.000119 -3.854362 -18.577271 20.227743 139.999924
14 139.999924 -0.000060 -0.000119 -5.443864 -18.761404 14.033012 139.999924
[Rope1_Seg05]
13 139.999832 0.000119 -0.000060 -10.009521 -17.666494 8.764825 139.999832
14 139.999832 0.000119 -0.000060 -10.068450 -14.988110 4.960398 139.999832
[Rope1_Seg06]
13 139.999954 0.000119 -0.000060 -5.551634 -6.862289 2.656391 139.999954
14 139.999954 0.000119 -0.000060 -5.683377 -6.237291 1.476985 139.999954
[Rope1_Seg07]
13 139.999985 0.000060 0.000000 -3.788126 -3.731201 1.169770 139.999985
14 139.999985 0.000060 0.000000 -4.023956 -3.597739 0.534092 139.999985
[Rope1_Seg09]
13 121.602913 0.000119 -0.000089 -89.793175 -1.359789 0.847147 121.602913
14 121.602913 0.000119 -0.000089 -89.793175 -1.359789 0.847147 121.602913
[L_mid_hand01]
13 103.859421 1.038730 8.195221 104.366898 -2.421568 -1.149032 104.187431
14 103.859421 1.038730 8.195221 104.394287 -4.293092 -1.633497 104.187431
[L_mid_hand02]
13 105.572853 -4.139662 -10.864139 -135.786102 5.891682 -5.427630 106.211075
14 105.572853 -4.139662 -10.864139 -135.946564 7.240659 -6.824872 106.211075
[L_mid_hand03]
13 104.641464 17.579376 -3.913581 -18.755919 0.592747 5.640763 106.179977
14 104.641464 17.579376 -3.913581 -18.729256 1.210565 7.472278 106.179977
[null_rope02_connect]
13 328.732849 0.000179 -0.000119 -85.875557 78.422447 46.525684 328.732849
14 328.732849 0.000179 -0.000119 -87.447327 78.957748 46.451328 328.732849
[Rope2_Seg01]
13 -0.000058 0.000134 0.000153 -12.954518 -28.877234 -10.161834 0.000211
14 -0.000056 0.000134 0.000153 -12.624336 -30.552834 -9.838011 0.000210
[Rope2_Seg02]
13 139.999741 -0.000060 -0.000119 -6.156768 5.609966 8.211819 139.999756
14 139.999741 -0.000060 -0.000119 -5.731289 5.568396 8.118680 139.999756
[Rope2_Seg03]
13 140.000107 0.000030 0.000000 -11.251823 8.569895 16.484457 140.000107
14 140.000107 0.000030 0.000000 -10.922747 9.005680 16.982019 140.000107
[Rope2_Seg04]
13 139.999802 0.000000 -0.000060 -16.270185 13.402661 30.365471 139.999802
14 139.999802 0.000000 -0.000060 -15.887269 14.195785 32.164360 139.999802
[Rope2_Seg05]
13 139.999985 -0.000060 0.000119 -7.920434 -3.991736 22.997051 139.999985
14 139.999985 -0.000060 0.000119 -7.740133 -3.001831 23.947918 139.999985
[Rope2_Seg06]
13 139.999893 -0.000030 -0.000119 -1.762636 -18.823193 9.981945 139.999893
14 139.999893 -0.000030 -0.000119 -2.283692 -18.880379 12.932879 139.999893
[Rope2_Seg07]
13 139.999893 0.000060 -0.000060 -0.548818 -13.050345 7.332201 139.999893
14 139.999893 0.000060 -0.000060 -0.376777 -14.804296 9.747486 139.999893
[Rope2_Seg09]
13 121.338966 0.000089 -0.000060 33.793236 -1.359788 -0.847141 121.338966
14 121.338966 0.000089 -0.000060 33.793236 -1.359788 -0.847141 121.338966
[R_mid_hand01]
13 104.680779 11.144459 -10.335981 -47.166042 5.964268 8.233263 105.778534
14 104.680779 11.144459 -10.335981 -47.009083 7.397055 9.573327 105.778534
[R_mid_hand02]
13 104.070427 2.443552 8.231699 75.550705 -6.213388 2.132293 104.424065
14 104.070427 2.443552 8.231699 75.492203 -8.101108 2.625583 104.424065
[R_mid_hand03]
13 106.028137 -11.221827 -5.996406 -164.587372 3.590652 -10.082821 106.788818
14 106.028137 -11.221827 -5.996406 -164.713638 4.104003 -11.970146 106.788818
[spine02]
13 129.756927 0.001550 0.000119 -0.148417 -4.116753 -5.746021 129.756927
14 129.756927 0.001550 0.000119 -0.134846 -4.092885 -5.937802 129.756927
[spine03]
13 78.817177 0.051888 -2.914022 1.615504 0.898882 9.566870 78.871040
14 78.850014 0.046175 -2.593485 1.698929 0.449799 11.235893 78.892670
[pelvis]
13 169.435242 0.051022 0.000000 81.984207 14.873917 1.931422 169.435257
14 169.435242 0.051022 0.000000 61.397076 13.102382 -1.234272 169.435257
[null_rope03_connect]
13 -1.257226 -2.466202 137.391083 21.161736 -11.489455 121.242104 137.418976
14 -1.257226 -2.466202 137.391083 9.158143 -30.851166 125.169952 137.418976
[null_rope04_connect]
13 -1.259640 -2.480268 -137.844437 21.161736 -11.489455 121.242104 137.872513
14 -1.259640 -2.480268 -137.844437 9.158143 -30.851166 125.169952 137.872513
[Rope3_Seg01]
13 0.000000 0.000000 0.000000 -83.149689 -58.329582 -140.881485 0.000000
14 0.000000 0.000000 0.000000 -101.145332 -63.666374 -121.077606 0.000000
[Rope3_Seg02]
13 139.999924 -0.000119 0.000060 -2.073471 17.995575 -29.890810 139.999924
14 139.999924 -0.000119 0.000060 -6.183709 10.205750 -30.945282 139.999924
[Rope3_Seg03]
13 139.999924 -0.000119 0.000119 -6.982947 18.950331 -22.833311 139.999924
14 139.999924 -0.000119 0.000119 -12.557591 14.254933 -22.324781 139.999924
[Rope3_Seg04]
13 139.999924 0.000119 0.000000 -4.367911 6.649282 -14.842158 139.999924
14 139.999924 0.000119 0.000000 -8.807804 6.827876 -14.537750 139.999924
[Rope3_Seg05]
13 139.999924 -0.000238 0.000060 -7.082221 0.573502 -22.303680 139.999924
14 139.999924 -0.000238 0.000060 -16.189562 3.778196 -23.159063 139.999924
[Rope3_Seg06]
13 139.999893 -0.000119 -0.000060 -10.128283 2.095134 -15.935704 139.999893
14 139.999893 -0.000119 -0.000060 -20.193655 6.767961 -15.659756 139.999893
[Rope3_Seg07]
13 139.999771 0.000060 -0.000119 -7.421474 2.939049 -7.233359 139.999771
14 139.999771 0.000060 -0.000119 -11.085583 5.848601 -5.443683 139.999771
[Rope3_Seg08]
13 139.999985 -0.000060 0.000000 -4.624686 2.150265 -3.823534 139.999985
14 139.999985 -0.000060 0.000000 -5.794453 3.756549 -2.353839 139.999985
[Rope3_Seg09]
13 90.185997 -0.000179 -0.000060 89.793228 -1.359877 -0.847183 90.185997
14 90.185997 -0.000179 -0.000060 89.793228 -1.359877 -0.847183 90.185997
[R_rear_hand01]
13 103.366196 -6.073594 -10.757982 -156.049316 6.070419 -2.795869 104.101845
14 103.366196 -6.073594 -10.757982 -156.102097 6.291094 -3.294051 104.101845
[R_rear_hand02]
13 100.509819 12.039542 -7.992327 -38.708435 1.958051 5.461186 101.543350
14 100.509819 12.039542 -7.992327 -38.693447 2.294945 5.884003 101.543350
[R_rear_hand03]
13 101.539970 5.215704 5.435467 84.307625 -2.361032 4.099037 101.819031
14 101.539970 5.215704 5.435467 84.306572 -2.901705 4.150926 101.819031
[Rope4_Seg01]
13 -0.000014 -0.000040 -0.000153 42.553062 20.229462 -116.594238 0.000158
14 -0.000014 -0.000037 -0.000153 35.588242 18.871500 -133.262497 0.000158
[Rope4_Seg02]
13 139.999985 0.000060 0.000119 0.175348 11.856640 2.103382 139.999985
14 139.999985 0.000060 0.000119 -2.998024 13.865072 -3.189031 139.999985
[Rope4_Seg03]
13 139.999924 0.000000 -0.000238 2.920157 22.842035 4.968698 139.999924
14 139.999924 0.000000 -0.000238 -0.561090 25.640230 -2.606473 139.999924
[Rope4_Seg04]
13 139.999985 0.000000 0.000119 5.100926 26.756437 12.852422 139.999985
14 139.999985 0.000000 0.000119 4.574636 24.283398 2.834365 139.999985
[Rope4_Seg05]
13 139.999802 -0.000060 -0.000119 43.155308 24.536390 -5.220930 139.999802
14 139.999802 -0.000060 -0.000119 21.135490 26.388643 -23.234577 139.999802
[Rope4_Seg06]
13 139.999924 0.000000 0.000060 48.619026 10.902888 -46.050209 139.999924
14 139.999924 0.000000 0.000060 21.792503 11.663513 -45.794891 139.999924
[Rope4_Seg07]
13 139.999802 0.000000 0.000000 6.456539 -11.410539 -17.038115 139.999802
14 139.999802 0.000000 0.000000 3.420938 -1.224349 -12.917360 139.999802
[Rope4_Seg08]
13 139.999924 0.000000 0.000119 -0.454838 -4.220658 -5.625811 139.999924
14 139.999924 0.000000 0.000119 -0.582116 -0.777142 -5.169520 139.999924
[Rope4_Seg09]
13 90.185791 0.000060 0.000060 -135.617828 2.228885 0.850567 90.185791
14 90.185791 0.000060 0.000060 -135.617828 2.228885 0.850567 90.185791
[L_rear_hand01]
13 101.696655 -8.392275 -7.654577 -38.746338 0.246096 177.290207 102.329041
14 101.696655 -8.392275 -7.654577 -38.746677 -0.110138 176.843857 102.329041
[L_rear_hand02]
13 102.726799 -1.568258 5.773216 84.315163 -1.142796 176.247437 102.900848
14 102.726799 -1.568258 5.773216 84.314537 -0.574387 176.194839 102.900848
[L_rear_hand03]
13 104.552910 9.721220 -10.420293 -155.747955 -4.630845 179.564758 105.519653
14 104.552910 9.721220 -10.420293 -155.787659 -4.864427 -179.911667 105.519653
